<svg xmlns="http://www.w3.org/2000/svg" version="1.1" width="40" height="40" viewBox="0 0 40 40"><path d="M29.063 2.813c3.377 2.833 5.715 6.409 6.221 10.859q0.019 0.352 0.029 0.703l0.029 0.365c0.171 3.459 -1.408 6.816 -2.998 9.791l-0.286 0.537c-1.659 3.007 -3.772 5.736 -5.964 8.369l-0.198 0.239a77.5 77.5 0 0 1 -2.971 3.364 38.125 38.125 0 0 0 -1.011 1.133c-0.554 0.641 -1.152 1.234 -1.758 1.826 -0.637 -0.253 -1.064 -0.71 -1.533 -1.191l-0.253 -0.256a32.5 32.5 0 0 1 -1.531 -1.669c-0.338 -0.391 -0.688 -0.77 -1.037 -1.15 -0.769 -0.844 -1.492 -1.718 -2.207 -2.607l-0.439 -0.536A61.25 61.25 0 0 1 9.844 28.125l-0.234 -0.346C6.458 23.073 3.878 17.806 5 12.031c0.568 -2.653 1.738 -5.039 3.594 -7.031l0.416 -0.448C14.137 -0.837 23.078 -1.716 29.063 2.813m-17.5 4.844c-2.104 2.573 -2.988 5.447 -2.813 8.75 0.405 3.159 1.969 5.814 4.438 7.803 2.486 1.825 5.498 2.563 8.545 2.153 2.685 -0.453 4.858 -1.739 6.704 -3.706l0.324 -0.339c1.786 -2.076 2.611 -4.951 2.541 -7.643 -0.282 -3.243 -1.682 -6.08 -4.145 -8.229C22.449 2.779 15.596 3.188 11.563 7.656" fill="#0184FF"/><path d="M24.936 7.539c2.081 1.518 3.495 3.434 4.019 5.987 0.343 2.277 0.029 4.579 -1.231 6.544A15 15 0 0 1 26.875 21.094l-0.328 0.366c-1.551 1.642 -3.578 2.661 -5.854 2.791 -2.676 0.031 -4.924 -0.587 -6.904 -2.487l-0.352 -0.357 -0.313 -0.313c-1.586 -1.693 -2.254 -3.952 -2.22 -6.237 0.172 -2.552 1.207 -4.793 3.075 -6.526 3.012 -2.594 7.609 -2.96 10.956 -0.792M15.313 12.969v2.344l2.188 -0.156 0.156 -2.188zm4.688 0v2.344h2.344v-2.344zm-2.344 2.344v2.344H20V15.313zm4.688 0v2.344h2.344V15.313z" fill="#0183FF"/></svg>